<svg width="23" height="23" viewBox="0 0 23 23" fill="none" xmlns="http://www.w3.org/2000/svg">
<circle cx="11.6525" cy="11.8348" r="8.01481" transform="rotate(-30 11.6525 11.8348)" fill="#FFC145"/>
<path d="M14.888 12.0246C15.1741 12.52 15.2482 13.0348 15.1105 13.569C14.9728 14.1032 14.6768 14.5786 14.2225 14.9953L14.568 15.5937C14.6646 15.761 14.6866 15.9328 14.6339 16.109C14.5914 16.288 14.4865 16.4257 14.3192 16.5223C14.1583 16.6152 13.9898 16.6353 13.8135 16.5826C13.641 16.5364 13.5065 16.4297 13.4099 16.2624L13.0978 15.7219C12.7318 15.8903 12.3706 16.0002 12.0142 16.0516C11.6642 16.0992 11.2873 16.0852 10.8833 16.0096C10.6204 15.9555 10.4351 15.8351 10.3274 15.6485C10.242 15.5005 10.2224 15.3403 10.2686 15.1678C10.3111 14.9888 10.4096 14.8547 10.564 14.7656C10.6862 14.695 10.8179 14.6705 10.959 14.6919C11.2513 14.7376 11.5154 14.7567 11.7513 14.7492C11.9835 14.7353 12.215 14.6831 12.4459 14.5927L11.3593 12.7107C9.92863 13.2193 8.90866 12.946 8.29944 11.8908C7.99112 11.3568 7.91867 10.8153 8.0821 10.2662C8.24182 9.71076 8.58571 9.22911 9.11377 8.82129L8.92989 8.5028C8.8333 8.33551 8.80813 8.1656 8.85436 7.99307C8.9033 7.81039 9.01142 7.67076 9.17871 7.57418C9.33956 7.48131 9.50811 7.46121 9.68436 7.51387C9.85689 7.5601 9.99145 7.66686 10.088 7.83415L10.2942 8.19124C10.8968 7.972 11.4624 7.91142 11.9908 8.00952C12.2629 8.04977 12.4546 8.16642 12.566 8.35944C12.6515 8.50742 12.6729 8.6709 12.6304 8.84986C12.5842 9.0224 12.4871 9.15138 12.3391 9.23682C12.2426 9.29254 12.139 9.31374 12.0284 9.30041C11.7425 9.251 11.3892 9.27054 10.9684 9.35904L11.9993 11.1445C12.7088 10.9322 13.2887 10.889 13.739 11.0151C14.1855 11.1348 14.5686 11.4713 14.888 12.0246ZM9.41042 11.1851C9.53301 11.3974 9.70087 11.5321 9.91399 11.5892C10.1234 11.6399 10.3823 11.6277 10.6907 11.5526L9.7657 9.95048C9.53162 10.1543 9.38603 10.3627 9.32892 10.5758C9.27181 10.789 9.29898 10.992 9.41042 11.1851ZM13.5539 13.8372C13.6959 13.6523 13.7895 13.4652 13.8348 13.2761C13.8763 13.0806 13.8543 12.9088 13.7689 12.7608C13.6649 12.5807 13.5242 12.456 13.347 12.3867C13.166 12.311 12.9434 12.2894 12.6791 12.322L13.5539 13.8372Z" fill="#404040"/>
</svg>
